<svg xmlns="http://www.w3.org/2000/svg" xmlns:xlink="http://www.w3.org/1999/xlink" version="1.1" x="0px" y="0px" enable-background="new 0 0 100 100" xml:space="preserve" viewBox="5.04 5.04 90 90"><g><path fill="none" d="M63.01,84.346c19.13-7.164,28.83-28.479,21.665-47.609c-7.165-19.129-28.48-28.83-47.609-21.665   c-19.13,7.164-28.831,28.48-21.666,47.609C22.564,81.812,43.88,91.51,63.01,84.346z M15.531,50.038c0-4.571,0.899-8.93,2.521-12.92   l3.149-2.589c0,0,6.668,6.471,9.564,6.548c3.145,0.083,10.743-6.548,10.743-6.548s8.132,8.017,11.657,7.939   c3.313-0.072,10.625-7.939,10.625-7.939s7.141,7.074,10.279,7.244c1.898,0.104,5.247-1.768,8.084-3.634   c1.35,3.657,2.093,7.607,2.112,11.728c-3.069,2.182-7.794,5.213-10.196,5.082c-3.139-0.171-10.279-7.245-10.279-7.245   s-7.312,7.867-10.626,7.938c-3.525,0.079-11.656-7.938-11.656-7.938s-7.599,6.631-10.743,6.547   c-2.896-0.075-9.564-6.547-9.564-6.547l-5.588,4.592C15.564,51.549,15.531,50.797,15.531,50.038z M15.87,54.624l2.827-2.226   c0,0,6.668,6.521,9.564,6.598c3.145,0.082,10.743-6.523,10.743-6.523s8.132,8.028,11.657,7.951   c3.314-0.072,10.625-7.934,10.625-7.934s7.141,7.077,10.279,7.249c3.21,0.174,10.565-5.489,12.577-7.035   C82.702,70.156,68.23,84,50.477,84h-1.176C32.213,84,18.172,71.147,15.87,54.624z"></path><path d="M84.144,52.706c-2.012,1.546-9.367,7.111-12.577,6.938c-3.139-0.172-10.279-7.196-10.279-7.196s-7.311,7.894-10.625,7.965   c-3.525,0.077-11.657-7.929-11.657-7.929s-7.599,6.639-10.743,6.556c-2.896-0.077-9.564-6.547-9.564-6.547l-2.827,2.131   C18.172,71.146,32.213,84,49.301,84h1.176C68.23,84,82.702,70.158,84.144,52.706z"></path><path d="M30.766,54.251c3.145,0.084,10.743-6.547,10.743-6.547s8.131,8.017,11.656,7.938c3.314-0.071,10.626-7.938,10.626-7.938   s7.141,7.074,10.279,7.245c2.402,0.132,7.127-2.899,10.196-5.082c-0.02-4.121-0.763-8.071-2.112-11.728   c-2.837,1.866-6.186,3.737-8.084,3.634c-3.139-0.17-10.279-7.244-10.279-7.244s-7.312,7.867-10.625,7.939   c-3.525,0.078-11.657-7.939-11.657-7.939s-7.599,6.631-10.743,6.548c-2.896-0.077-9.564-6.548-9.564-6.548l-3.149,2.589   c-1.621,3.99-2.521,8.349-2.521,12.92c0,0.759,0.033,1.511,0.082,2.258l5.588-4.592C21.201,47.704,27.869,54.176,30.766,54.251z"></path><path d="M92.168,34.259C83.453,10.991,57.527-0.807,34.26,7.907C10.991,16.622-0.807,42.548,7.907,65.816   c8.714,23.267,34.64,35.065,57.908,26.352C89.084,83.453,100.882,57.527,92.168,34.259z M15.399,62.681   c-7.165-19.129,2.536-40.445,21.666-47.609c19.129-7.165,40.444,2.536,47.609,21.665c7.165,19.13-2.535,40.445-21.665,47.609   S22.564,81.812,15.399,62.681z"></path></g></svg>